# xmcd
#
# Track frame offsets:
#	150
#	23144
#	47138
#	73630
#	93619
#	109945
#	137617
#	157080
#	181065
#	203556
#
# Disc length: 2951 seconds
#
# Revision: 2
# Processed by: cddbd v1.5.2PL0 Copyright (c) Steve Scherf et al.
# Submitted via: audiograbber 1.83.01
#
DISCID=860b850a
DTITLE=Various Artist - DISCOVER COZY MOMENTS
DYEAR=2009
DGENRE=Fireplace Music
TTITLE0=BOOZOO BAJOU "SECOND TO NONE"
TTITLE1=WAHOO "SUN IN MY CANDLELIGHT"
TTITLE2=MAGIC NUMBER "SAD WORLD"
TTITLE3=ROAD FEAT. WILL MATHEWS "STARS IN MY EYEBALL"
TTITLE4=JILL SCOTT "ONLY YOU"
TTITLE5=JEN MEETS KIESER.VELTEN "TOGETHER"
TTITLE6=3-11 PORTER "SURROUND ME WITH YOUR LOVE"
TTITLE7=DESNEY BAILEY "CHILLIN"
TTITLE8=RAW INSTINCT "DE LA BASS"
TTITLE9=THE FUNKY LOWLIVES "IRREPLACEABLE"
EXTD=
EXTT0=
EXTT1=
EXTT2=
EXTT3=
EXTT4=
EXTT5=
EXTT6=
EXTT7=
EXTT8=
EXTT9=
PLAYORDER=
